<svg width="2671" height="1420" xmlns="http://www.w3.org/2000/svg" xmlns:xlink="http://www.w3.org/1999/xlink" xml:space="preserve" overflow="hidden"><defs><clipPath id="clip0"><rect x="1569" y="149" width="2671" height="1420"/></clipPath></defs><g clip-path="url(#clip0)" transform="translate(-1569 -149)"><rect x="1570" y="150" width="2668" height="1417" fill="#FFFFFF"/><g><path d="M1679.5 1241.54 4188.5 1241.54M1679.5 1126.54 4188.5 1126.54M1679.5 1010.53 4188.5 1010.53M1679.5 895.53 4188.5 895.53M1679.5 780.526 4188.5 780.526M1679.5 665.522 4188.5 665.522M1679.5 549.518 4188.5 549.518M1679.5 434.514 4188.5 434.514M1679.5 319.5 4188.5 319.5" stroke="#D9D9D9" stroke-width="3.4375" stroke-linejoin="round" stroke-miterlimit="10" fill="none"/></g><g><path d="M1679.5 1356.5 4188.5 1356.5" stroke="#D9D9D9" stroke-width="3.4375" stroke-linejoin="round" stroke-miterlimit="10" fill="none" fill-rule="evenodd"/></g><g><path d="M1763 447 1931.06 673.022 2098.07 771.025 2265.07 900.03 2432.08 963.032 2599.09 1025.03 2767.09 1076.04 2934.1 1108.04 3101.1 1128.04 3268.11 1144.04 3435.11 1158.04 3603.12 1156.04 3770.12 1153.04 3937.13 1164 4104 1158.04" stroke="#E97132" stroke-width="10.3125" stroke-linecap="round" stroke-linejoin="round" stroke-miterlimit="10" fill="none"/></g><g><path d="M1774.58 446.031C1774.58 452.106 1769.65 457.031 1763.58 457.031 1757.5 457.031 1752.58 452.106 1752.58 446.031 1752.58 439.956 1757.5 435.032 1763.58 435.032 1769.65 435.032 1774.58 439.956 1774.58 446.031Z" stroke="#E97132" stroke-width="3.4375" stroke-linejoin="round" stroke-miterlimit="10" fill="#E97132"/><path d="M1941.58 673.031C1941.58 679.106 1936.65 684.031 1930.58 684.031 1924.5 684.031 1919.58 679.106 1919.58 673.031 1919.58 666.956 1924.5 662.031 1930.58 662.031 1936.65 662.031 1941.58 666.956 1941.58 673.031Z" stroke="#E97132" stroke-width="3.4375" stroke-linejoin="round" stroke-miterlimit="10" fill="#E97132"/><path d="M2108.58 771.031C2108.58 777.106 2103.65 782.031 2097.58 782.031 2091.5 782.031 2086.58 777.106 2086.58 771.031 2086.58 764.956 2091.5 760.031 2097.58 760.031 2103.65 760.031 2108.58 764.956 2108.58 771.031Z" stroke="#E97132" stroke-width="3.4375" stroke-linejoin="round" stroke-miterlimit="10" fill="#E97132"/><path d="M2276.58 900.031C2276.58 906.106 2271.65 911.031 2265.58 911.031 2259.5 911.031 2254.58 906.106 2254.58 900.031 2254.58 893.956 2259.5 889.032 2265.58 889.032 2271.65 889.032 2276.58 893.956 2276.58 900.031Z" stroke="#E97132" stroke-width="3.4375" stroke-linejoin="round" stroke-miterlimit="10" fill="#E97132"/><path d="M2443.58 962.031C2443.58 968.106 2438.65 973.031 2432.58 973.031 2426.5 973.031 2421.58 968.106 2421.58 962.031 2421.58 955.956 2426.5 951.032 2432.58 951.032 2438.65 951.032 2443.58 955.956 2443.58 962.031Z" stroke="#E97132" stroke-width="3.4375" stroke-linejoin="round" stroke-miterlimit="10" fill="#E97132"/><path d="M2610.58 1024.03C2610.58 1030.11 2605.65 1035.03 2599.58 1035.03 2593.5 1035.03 2588.58 1030.11 2588.58 1024.03 2588.58 1017.96 2593.5 1013.03 2599.58 1013.03 2605.65 1013.03 2610.58 1017.96 2610.58 1024.03Z" stroke="#E97132" stroke-width="3.4375" stroke-linejoin="round" stroke-miterlimit="10" fill="#E97132"/><path d="M2777.58 1076.03C2777.58 1082.11 2772.65 1087.03 2766.58 1087.03 2760.5 1087.03 2755.58 1082.11 2755.58 1076.03 2755.58 1069.96 2760.5 1065.03 2766.58 1065.03 2772.65 1065.03 2777.58 1069.96 2777.58 1076.03Z" stroke="#E97132" stroke-width="3.4375" stroke-linejoin="round" stroke-miterlimit="10" fill="#E97132"/><path d="M2944.58 1108.03C2944.58 1114.11 2939.65 1119.03 2933.58 1119.03 2927.5 1119.03 2922.58 1114.11 2922.58 1108.03 2922.58 1101.96 2927.5 1097.03 2933.58 1097.03 2939.65 1097.03 2944.58 1101.96 2944.58 1108.03Z" stroke="#E97132" stroke-width="3.4375" stroke-linejoin="round" stroke-miterlimit="10" fill="#E97132"/><path d="M3112.58 1128.03C3112.58 1134.11 3107.65 1139.03 3101.58 1139.03 3095.5 1139.03 3090.58 1134.11 3090.58 1128.03 3090.58 1121.96 3095.5 1117.03 3101.58 1117.03 3107.65 1117.03 3112.58 1121.96 3112.58 1128.03Z" stroke="#E97132" stroke-width="3.4375" stroke-linejoin="round" stroke-miterlimit="10" fill="#E97132"/><path d="M3279.58 1144.03C3279.58 1150.11 3274.65 1155.03 3268.58 1155.03 3262.5 1155.03 3257.58 1150.11 3257.58 1144.03 3257.58 1137.96 3262.5 1133.03 3268.58 1133.03 3274.65 1133.03 3279.58 1137.96 3279.58 1144.03Z" stroke="#E97132" stroke-width="3.4375" stroke-linejoin="round" stroke-miterlimit="10" fill="#E97132"/><path d="M3446.58 1158.03C3446.58 1164.11 3441.65 1169.03 3435.58 1169.03 3429.5 1169.03 3424.58 1164.11 3424.58 1158.03 3424.58 1151.96 3429.5 1147.03 3435.58 1147.03 3441.65 1147.03 3446.58 1151.96 3446.58 1158.03Z" stroke="#E97132" stroke-width="3.4375" stroke-linejoin="round" stroke-miterlimit="10" fill="#E97132"/><path d="M3613.58 1156.03C3613.58 1162.11 3608.65 1167.03 3602.58 1167.03 3596.5 1167.03 3591.58 1162.11 3591.58 1156.03 3591.58 1149.96 3596.5 1145.03 3602.58 1145.03 3608.65 1145.03 3613.58 1149.96 3613.58 1156.03Z" stroke="#E97132" stroke-width="3.4375" stroke-linejoin="round" stroke-miterlimit="10" fill="#E97132"/><path d="M3780.58 1152.03C3780.58 1158.11 3775.65 1163.03 3769.58 1163.03 3763.5 1163.03 3758.58 1158.11 3758.58 1152.03 3758.58 1145.96 3763.5 1141.03 3769.58 1141.03 3775.65 1141.03 3780.58 1145.96 3780.58 1152.03Z" stroke="#E97132" stroke-width="3.4375" stroke-linejoin="round" stroke-miterlimit="10" fill="#E97132"/><path d="M3948.58 1164.03C3948.58 1170.11 3943.65 1175.03 3937.58 1175.03 3931.5 1175.03 3926.58 1170.11 3926.58 1164.03 3926.58 1157.96 3931.5 1153.03 3937.58 1153.03 3943.65 1153.03 3948.58 1157.96 3948.58 1164.03Z" stroke="#E97132" stroke-width="3.4375" stroke-linejoin="round" stroke-miterlimit="10" fill="#E97132"/><path d="M4115.58 1158.03C4115.58 1164.11 4110.65 1169.03 4104.58 1169.03 4098.5 1169.03 4093.58 1164.11 4093.58 1158.03 4093.58 1151.96 4098.5 1147.03 4104.58 1147.03 4110.65 1147.03 4115.58 1151.96 4115.58 1158.03Z" stroke="#E97132" stroke-width="3.4375" stroke-linejoin="round" stroke-miterlimit="10" fill="#E97132"/></g><g><text fill="#595959" font-family="Aptos Narrow,Aptos Narrow_MSFontService,sans-serif" font-weight="400" font-stretch="semi-condensed" font-size="41" transform="matrix(1 0 0 1 1620.77 1368)">0</text></g><g><text fill="#595959" font-family="Aptos Narrow,Aptos Narrow_MSFontService,sans-serif" font-weight="400" font-stretch="semi-condensed" font-size="41" transform="matrix(1 0 0 1 1620.77 1253)">5</text></g><g><text fill="#595959" font-family="Aptos Narrow,Aptos Narrow_MSFontService,sans-serif" font-weight="400" font-stretch="semi-condensed" font-size="41" transform="matrix(1 0 0 1 1599.87 1138)">10</text></g><g><text fill="#595959" font-family="Aptos Narrow,Aptos Narrow_MSFontService,sans-serif" font-weight="400" font-stretch="semi-condensed" font-size="41" transform="matrix(1 0 0 1 1599.87 1023)">15</text></g><g><text fill="#595959" font-family="Aptos Narrow,Aptos Narrow_MSFontService,sans-serif" font-weight="400" font-stretch="semi-condensed" font-size="41" transform="matrix(1 0 0 1 1599.87 907)">20</text></g><g><text fill="#595959" font-family="Aptos Narrow,Aptos Narrow_MSFontService,sans-serif" font-weight="400" font-stretch="semi-condensed" font-size="41" transform="matrix(1 0 0 1 1599.87 792)">25</text></g><g><text fill="#595959" font-family="Aptos Narrow,Aptos Narrow_MSFontService,sans-serif" font-weight="400" font-stretch="semi-condensed" font-size="41" transform="matrix(1 0 0 1 1599.87 677)">30</text></g><g><text fill="#595959" font-family="Aptos Narrow,Aptos Narrow_MSFontService,sans-serif" font-weight="400" font-stretch="semi-condensed" font-size="41" transform="matrix(1 0 0 1 1599.87 562)">35</text></g><g><text fill="#595959" font-family="Aptos Narrow,Aptos Narrow_MSFontService,sans-serif" font-weight="400" font-stretch="semi-condensed" font-size="41" transform="matrix(1 0 0 1 1599.87 446)">40</text></g><g><text fill="#595959" font-family="Aptos Narrow,Aptos Narrow_MSFontService,sans-serif" font-weight="400" font-stretch="semi-condensed" font-size="41" transform="matrix(1 0 0 1 1599.87 331)">45</text></g><g><text fill="#595959" font-family="Aptos Narrow,Aptos Narrow_MSFontService,sans-serif" font-weight="400" font-stretch="semi-condensed" font-size="41" transform="matrix(1 0 0 1 1752.91 1422)">2</text></g><g><text fill="#595959" font-family="Aptos Narrow,Aptos Narrow_MSFontService,sans-serif" font-weight="400" font-stretch="semi-condensed" font-size="41" transform="matrix(1 0 0 1 1920.13 1422)">3</text></g><g><text fill="#595959" font-family="Aptos Narrow,Aptos Narrow_MSFontService,sans-serif" font-weight="400" font-stretch="semi-condensed" font-size="41" transform="matrix(1 0 0 1 2087.35 1422)">4</text></g><g><text fill="#595959" font-family="Aptos Narrow,Aptos Narrow_MSFontService,sans-serif" font-weight="400" font-stretch="semi-condensed" font-size="41" transform="matrix(1 0 0 1 2254.57 1422)">5</text></g><g><text fill="#595959" font-family="Aptos Narrow,Aptos Narrow_MSFontService,sans-serif" font-weight="400" font-stretch="semi-condensed" font-size="41" transform="matrix(1 0 0 1 2421.78 1422)">6</text></g><g><text fill="#595959" font-family="Aptos Narrow,Aptos Narrow_MSFontService,sans-serif" font-weight="400" font-stretch="semi-condensed" font-size="41" transform="matrix(1 0 0 1 2589 1422)">7</text></g><g><text fill="#595959" font-family="Aptos Narrow,Aptos Narrow_MSFontService,sans-serif" font-weight="400" font-stretch="semi-condensed" font-size="41" transform="matrix(1 0 0 1 2756.22 1422)">8</text></g><g><text fill="#595959" font-family="Aptos Narrow,Aptos Narrow_MSFontService,sans-serif" font-weight="400" font-stretch="semi-condensed" font-size="41" transform="matrix(1 0 0 1 2923.44 1422)">9</text></g><g><text fill="#595959" font-family="Aptos Narrow,Aptos Narrow_MSFontService,sans-serif" font-weight="400" font-stretch="semi-condensed" font-size="41" transform="matrix(1 0 0 1 3080.2 1422)">10</text></g><g><text fill="#595959" font-family="Aptos Narrow,Aptos Narrow_MSFontService,sans-serif" font-weight="400" font-stretch="semi-condensed" font-size="41" transform="matrix(1 0 0 1 3247.42 1422)">11</text></g><g><text fill="#595959" font-family="Aptos Narrow,Aptos Narrow_MSFontService,sans-serif" font-weight="400" font-stretch="semi-condensed" font-size="41" transform="matrix(1 0 0 1 3414.64 1422)">12</text></g><g><text fill="#595959" font-family="Aptos Narrow,Aptos Narrow_MSFontService,sans-serif" font-weight="400" font-stretch="semi-condensed" font-size="41" transform="matrix(1 0 0 1 3581.86 1422)">13</text></g><g><text fill="#595959" font-family="Aptos Narrow,Aptos Narrow_MSFontService,sans-serif" font-weight="400" font-stretch="semi-condensed" font-size="41" transform="matrix(1 0 0 1 3749.08 1422)">14</text></g><g><text fill="#595959" font-family="Aptos Narrow,Aptos Narrow_MSFontService,sans-serif" font-weight="400" font-stretch="semi-condensed" font-size="41" transform="matrix(1 0 0 1 3916.29 1422)">15</text></g><g><text fill="#595959" font-family="Aptos Narrow,Aptos Narrow_MSFontService,sans-serif" font-weight="400" font-stretch="semi-condensed" font-size="41" transform="matrix(1 0 0 1 4083.51 1422)">16</text></g><g><text fill="#595959" font-family="Aptos Narrow,Aptos Narrow_MSFontService,sans-serif" font-weight="400" font-stretch="semi-condensed" font-size="64" transform="matrix(1 0 0 1 2764.09 244)">Laufzeit (s)</text></g><g><path d="M2773 1501 2861 1501" stroke="#E97132" stroke-width="10.3125" stroke-linecap="round" stroke-linejoin="round" stroke-miterlimit="10" fill="none" fill-rule="evenodd"/></g><g><path d="M2828 1501C2828 1507.07 2823.07 1512 2817 1512 2810.92 1512 2806 1507.07 2806 1501 2806 1494.92 2810.92 1490 2817 1490 2823.07 1490 2828 1494.92 2828 1501Z" stroke="#E97132" stroke-width="3.4375" stroke-linejoin="round" stroke-miterlimit="10" fill="#E97132"/></g><g><text fill="#595959" font-family="Aptos Narrow,Aptos Narrow_MSFontService,sans-serif" font-weight="400" font-stretch="semi-condensed" font-size="41" transform="matrix(1 0 0 1 2870.72 1513)">Laufzeit (s)</text></g><rect x="1570.5" y="150.5" width="2668" height="1417" stroke="#D9D9D9" stroke-width="3.4375" stroke-linejoin="round" stroke-miterlimit="10" fill="none"/></g></svg>